# xmcd
#
# Track frame offsets: 
#        150
#        23818
#        39895
#        56528
#        72192
#        87724
#        111878
#        131301
#        147792
#        166068
#        188451
#
# Disc length: 2839 seconds
#
# Revision: 1
# Processed by: cddbd v1.5.2PL0 Copyright (c) Steve Scherf et al.
# Submitted via: ExactAudioCopy v1.3
#
DISCID=870b150b
DTITLE=Mario Biondi - Best Of Soul [CD-2]
DYEAR=2016
DGENRE=Soul
TTITLE0=Gratitude
TTITLE1=Be Lonely
TTITLE2=Shine On 
TTITLE3=What Have You Done To Me
TTITLE4=Deep Space
TTITLE5=Come To Me
TTITLE6=Open Up Your Eyes
TTITLE7=Love Is A Temple
TTITLE8=Another Kind Of Love
TTITLE9=All I Want Is You
TTITLE10=Nightshift
EXTD=
EXTT0=
EXTT1=
EXTT2=
EXTT3=
EXTT4=
EXTT5=
EXTT6=
EXTT7=
EXTT8=
EXTT9=
EXTT10=
PLAYORDER=
